<svg width="24" height="24" viewBox="0 0 24 24" fill="none" xmlns="http://www.w3.org/2000/svg">
<path fill-rule="evenodd" clip-rule="evenodd" d="M16.1999 5.92568C17.6825 6.78214 18.868 8.07122 19.5975 9.62024C20.327 11.1693 20.5658 12.9042 20.2818 14.5927C19.9977 16.2812 19.2045 17.8426 18.0083 19.0676C16.8122 20.2927 15.2702 21.123 13.5889 21.4473C11.9077 21.7715 10.1676 21.5743 8.60156 20.8819C7.03557 20.1896 5.71855 19.0352 4.82694 17.5735C3.93532 16.1118 3.51169 14.4125 3.61281 12.7032C3.71392 10.994 4.33495 9.3565 5.39269 8.01008C5.63509 7.70168 6.10069 7.74848 6.34429 8.05688C6.67789 8.47928 7.05709 8.86328 7.47589 9.20168C7.87429 9.52448 8.41909 9.14288 8.40349 8.63048C8.36517 7.48795 8.60051 6.35281 9.08989 5.31968C9.73037 3.97132 10.7724 2.85422 12.0731 2.12168C12.3695 1.95368 12.7331 2.10248 12.8855 2.40728C13.6198 3.88084 14.7728 5.10481 16.1999 5.92568V5.92568ZM16.7999 14.4001C16.7999 15.6731 16.2942 16.894 15.394 17.7942C14.4938 18.6944 13.2729 19.2001 11.9999 19.2001C9.70429 19.2001 7.77589 17.5225 7.30789 15.3817C7.19629 14.8669 7.83589 14.6101 8.28469 14.8861C8.86998 15.2451 9.52481 15.4758 10.2059 15.5629C10.5695 15.6085 10.8431 15.2749 10.8179 14.9101C10.686 13.0937 11.2501 11.2952 12.3959 9.87968C12.4566 9.80383 12.5368 9.74591 12.6279 9.71209C12.719 9.67828 12.8176 9.66984 12.9131 9.68768C14.0072 9.89994 14.9934 10.4862 15.7026 11.346C16.4117 12.2058 16.7997 13.2856 16.7999 14.4001V14.4001Z" fill="#D52E2E"/>
</svg>
