<svg width="70" height="70" viewBox="0 0 70 70" fill="none" xmlns="http://www.w3.org/2000/svg">
<g filter="url(#filter0_d_105_530)">
<circle cx="35" cy="35" r="20" fill="#353E4A"/>
<circle cx="35" cy="35" r="19" stroke="#479DE6" stroke-width="2"/>
</g>
<path d="M40.5151 31.2184L30.3359 26.7376C30.1322 26.6483 29.9015 26.6435 29.6942 26.7243C29.5918 26.7648 29.4985 26.8253 29.4195 26.9021C29.3406 26.9789 29.2776 27.0705 29.2342 27.1718L26.7342 33.0051C26.6472 33.2082 26.6444 33.4376 26.7264 33.6428C26.8085 33.848 26.9687 34.0122 27.1717 34.0993L32.9692 36.5834L31.9359 39.1668H28.3334V36.6668H26.6667V43.3334H28.3334V40.8334H31.9359C32.6217 40.8334 33.2292 40.4218 33.4826 39.7851L34.5009 37.2401L37.3501 38.4609C37.5523 38.5478 37.7806 38.5512 37.9853 38.4703C38.19 38.3895 38.3544 38.2309 38.4426 38.0293L40.9426 32.3151C41.031 32.113 41.0357 31.884 40.9556 31.6784C40.8754 31.4728 40.717 31.3074 40.5151 31.2184V31.2184ZM41.6084 38.6434L40.0601 38.0251L41.7251 33.8584L43.2734 34.4759L41.6084 38.6434Z" fill="#479DE6"/>
<defs>
<filter id="filter0_d_105_530" x="0" y="0" width="70" height="70" filterUnits="userSpaceOnUse" color-interpolation-filters="sRGB">
<feFlood flood-opacity="0" result="BackgroundImageFix"/>
<feColorMatrix in="SourceAlpha" type="matrix" values="0 0 0 0 0 0 0 0 0 0 0 0 0 0 0 0 0 0 127 0" result="hardAlpha"/>
<feOffset/>
<feGaussianBlur stdDeviation="7.5"/>
<feComposite in2="hardAlpha" operator="out"/>
<feColorMatrix type="matrix" values="0 0 0 0 0 0 0 0 0 0 0 0 0 0 0 0 0 0 0.15 0"/>
<feBlend mode="normal" in2="BackgroundImageFix" result="effect1_dropShadow_105_530"/>
<feBlend mode="normal" in="SourceGraphic" in2="effect1_dropShadow_105_530" result="shape"/>
</filter>
</defs>
</svg>
