<svg width="20" height="20" viewBox="0 0 20 20" fill="none" xmlns="http://www.w3.org/2000/svg">
<path d="M10.0001 14.1667C10.2362 14.1667 10.4342 14.0867 10.5942 13.9267C10.7537 13.7673 10.8334 13.5695 10.8334 13.3334V10.8334H13.3542C13.5904 10.8334 13.7848 10.7534 13.9376 10.5934C14.0904 10.434 14.1667 10.2362 14.1667 10.0001C14.1667 9.76397 14.0867 9.56591 13.9267 9.40591C13.7673 9.24647 13.5695 9.16675 13.3334 9.16675H10.8334V6.64591C10.8334 6.4098 10.7537 6.21536 10.5942 6.06258C10.4342 5.9098 10.2362 5.83341 10.0001 5.83341C9.76397 5.83341 9.56619 5.91314 9.40675 6.07258C9.24675 6.23258 9.16675 6.43064 9.16675 6.66675V9.16675H6.64591C6.4098 9.16675 6.21536 9.24647 6.06258 9.40591C5.9098 9.56591 5.83341 9.76397 5.83341 10.0001C5.83341 10.2362 5.91314 10.434 6.07258 10.5934C6.23258 10.7534 6.43064 10.8334 6.66675 10.8334H9.16675V13.3542C9.16675 13.5904 9.24675 13.7848 9.40675 13.9376C9.56619 14.0904 9.76397 14.1667 10.0001 14.1667V14.1667ZM10.0001 18.3334C8.8473 18.3334 7.76397 18.1145 6.75008 17.6767C5.73619 17.2395 4.85425 16.6459 4.10425 15.8959C3.35425 15.1459 2.76064 14.264 2.32341 13.2501C1.88564 12.2362 1.66675 11.1529 1.66675 10.0001C1.66675 8.8473 1.88564 7.76397 2.32341 6.75008C2.76064 5.73619 3.35425 4.85425 4.10425 4.10425C4.85425 3.35425 5.73619 2.76036 6.75008 2.32258C7.76397 1.88536 8.8473 1.66675 10.0001 1.66675C11.1529 1.66675 12.2362 1.88536 13.2501 2.32258C14.264 2.76036 15.1459 3.35425 15.8959 4.10425C16.6459 4.85425 17.2395 5.73619 17.6767 6.75008C18.1145 7.76397 18.3334 8.8473 18.3334 10.0001C18.3334 11.1529 18.1145 12.2362 17.6767 13.2501C17.2395 14.264 16.6459 15.1459 15.8959 15.8959C15.1459 16.6459 14.264 17.2395 13.2501 17.6767C12.2362 18.1145 11.1529 18.3334 10.0001 18.3334Z" fill="#171717"/>
</svg>
