<svg width="24" height="24" viewBox="0 0 24 24" fill="none" xmlns="http://www.w3.org/2000/svg">
<path d="M4.5 5.25V18.75C4.5 19.0484 4.38147 19.3345 4.1705 19.5455C3.95952 19.7565 3.67337 19.875 3.375 19.875C3.07663 19.875 2.79048 19.7565 2.5795 19.5455C2.36853 19.3345 2.25 19.0484 2.25 18.75V5.25C2.25 4.95163 2.36853 4.66548 2.5795 4.4545C2.79048 4.24353 3.07663 4.125 3.375 4.125C3.67337 4.125 3.95952 4.24353 4.1705 4.4545C4.38147 4.66548 4.5 4.95163 4.5 5.25V5.25ZM12.2531 10.0031L10.875 10.4531V9C10.875 8.70163 10.7565 8.41548 10.5455 8.2045C10.3345 7.99353 10.0484 7.875 9.75 7.875C9.45163 7.875 9.16548 7.99353 8.95451 8.2045C8.74353 8.41548 8.625 8.70163 8.625 9V10.4531L7.24688 10.0031C7.10441 9.94899 6.95243 9.92436 6.80015 9.93074C6.64788 9.93712 6.49849 9.97437 6.36105 10.0402C6.22361 10.1061 6.10099 10.1992 6.00062 10.3139C5.90026 10.4286 5.82424 10.5625 5.77719 10.7075C5.73015 10.8524 5.71304 11.0054 5.72692 11.1572C5.7408 11.309 5.78537 11.4563 5.85794 11.5904C5.9305 11.7244 6.02954 11.8423 6.14904 11.9369C6.26854 12.0315 6.40602 12.1008 6.55313 12.1406L7.93125 12.5906L7.07813 13.7625C6.90352 14.0043 6.83119 14.3052 6.87681 14.6C6.92243 14.8948 7.08233 15.1598 7.32188 15.3375C7.51662 15.4755 7.74884 15.5507 7.9875 15.5531C8.16562 15.554 8.34131 15.5118 8.49963 15.4302C8.65796 15.3486 8.79423 15.2299 8.89688 15.0844L9.75 13.9125L10.6031 15.0844C10.7058 15.2299 10.842 15.3486 11.0004 15.4302C11.1587 15.5118 11.3344 15.554 11.5125 15.5531C11.7512 15.5507 11.9834 15.4755 12.1781 15.3375C12.4177 15.1598 12.5776 14.8948 12.6232 14.6C12.6688 14.3052 12.5965 14.0043 12.4219 13.7625L11.5688 12.5906L12.9469 12.1406C13.2168 12.038 13.437 11.8356 13.5618 11.5752C13.6866 11.3148 13.7064 11.0164 13.6173 10.7417C13.5282 10.467 13.3368 10.2372 13.0829 10.0997C12.8289 9.9622 12.5318 9.92763 12.2531 10.0031V10.0031ZM22.6688 10.725C22.5764 10.4418 22.3756 10.2067 22.1102 10.0714C21.8448 9.93605 21.5366 9.91151 21.2531 10.0031L19.875 10.4531V9C19.875 8.70163 19.7565 8.41548 19.5455 8.2045C19.3345 7.99353 19.0484 7.875 18.75 7.875C18.4516 7.875 18.1655 7.99353 17.9545 8.2045C17.7435 8.41548 17.625 8.70163 17.625 9V10.4531L16.2469 10.0031C16.1044 9.94899 15.9524 9.92436 15.8002 9.93074C15.6479 9.93712 15.4985 9.97437 15.3611 10.0402C15.2236 10.1061 15.101 10.1992 15.0006 10.3139C14.9003 10.4286 14.8242 10.5625 14.7772 10.7075C14.7301 10.8524 14.713 11.0054 14.7269 11.1572C14.7408 11.309 14.7854 11.4563 14.8579 11.5904C14.9305 11.7244 15.0295 11.8423 15.149 11.9369C15.2685 12.0315 15.406 12.1008 15.5531 12.1406L16.9313 12.5906L16.0781 13.7625C15.9035 14.0043 15.8312 14.3052 15.8768 14.6C15.9224 14.8948 16.0823 15.1598 16.3219 15.3375C16.5166 15.4755 16.7488 15.5507 16.9875 15.5531C17.1656 15.554 17.3413 15.5118 17.4996 15.4302C17.658 15.3486 17.7942 15.2299 17.8969 15.0844L18.75 13.9125L19.6031 15.0844C19.7058 15.2299 19.842 15.3486 20.0004 15.4302C20.1587 15.5118 20.3344 15.554 20.5125 15.5531C20.7512 15.5507 20.9834 15.4755 21.1781 15.3375C21.4177 15.1598 21.5776 14.8948 21.6232 14.6C21.6688 14.3052 21.5965 14.0043 21.4219 13.7625L20.5688 12.5906L21.9469 12.1406C22.0878 12.096 22.2185 12.0238 22.3313 11.9282C22.4441 11.8326 22.5368 11.7156 22.604 11.5838C22.6712 11.4521 22.7115 11.3084 22.7226 11.1609C22.7337 11.0135 22.7154 10.8653 22.6688 10.725V10.725Z" fill="#A5B8CC"/>
</svg>
